<svg viewBox="0 0 200 200" xmlns="http://www.w3.org/2000/svg">
  <defs>
    <linearGradient id="logoGradient" x1="0%" y1="0%" x2="100%" y2="100%">
      <stop offset="0%" style="stop-color:#001524;stop-opacity:1" />
      <stop offset="100%" style="stop-color:#002847;stop-opacity:1" />
    </linearGradient>
  </defs>
  <!-- Main chat bubble with more natural bottom curve -->
  <path 
    d="M 60 60
       L 140 60
       Q 150 60, 150 70
       L 150 120
       C 150 140, 115 135, 100 138
       C 85 135, 50 140, 50 120
       L 50 70
       Q 50 60, 60 60
       Z" 
    fill="url(#logoGradient)"
  />
  <!-- More naturally flowing chat tail -->
  <path 
    d="M 90 138 
       C 85 138, 80 145, 75 155 
       C 80 148, 85 142, 95 138" 
    fill="url(#logoGradient)"
  />
  <!-- Enhanced center line for book pages -->
  <path 
    d="M 100 75 L 100 135" 
    stroke="white" 
    stroke-width="3"
    stroke-linecap="round"
  />
  <!-- Refined book page lines -->
  <path 
    d="M 70 85 L 95 85
       M 105 85 L 130 85
       M 70 100 L 95 100
       M 105 100 L 130 100
       M 70 115 L 95 115
       M 105 115 L 130 115"
    stroke="white"
    stroke-width="2"
    stroke-linecap="round"
    opacity="0.8"
  />
</svg>